<?xml version="1.0" standalone="no"?>
<!DOCTYPE svg PUBLIC "-//W3C//DTD SVG 20010904//EN"
 "http://www.w3.org/TR/2001/REC-SVG-20010904/DTD/svg10.dtd">
<svg version="1.0" xmlns="http://www.w3.org/2000/svg"
 width="512.000000pt" height="512.000000pt" viewBox="0 0 512.000000 512.000000"
 preserveAspectRatio="xMidYMid meet">
<metadata>
Created by potrace 1.11, written by Peter Selinger 2001-2013
</metadata>
<g transform="translate(0.000000,512.000000) scale(0.100000,-0.100000)"
fill="#000000" stroke="none">
<path d="M0 3010 l0 -1950 906 0 906 0 -4 -182 c-3 -162 -6 -188 -24 -229 -30
-65 -87 -124 -147 -154 -68 -33 -75 -33 -264 -34 l-163 -1 0 -150 0 -150 1350
0 1350 0 0 149 0 149 -182 4 c-173 3 -186 5 -234 30 -65 33 -89 53 -126 107
-46 66 -58 126 -58 304 l0 157 905 0 905 0 0 1950 0 1950 -2560 0 -2560 0 0
-1950z"/>
</g>
</svg>
